<svg width="36" height="36" viewBox="0 0 36 36" fill="none" xmlns="http://www.w3.org/2000/svg">
<g clip-path="url(#clip0_51_12)">
<path d="M4.5 18C4.5 19.7728 4.84919 21.5283 5.52763 23.1662C6.20606 24.8041 7.20047 26.2923 8.45406 27.5459C9.70765 28.7995 11.1959 29.7939 12.8338 30.4724C14.4717 31.1508 16.2272 31.5 18 31.5C19.7728 31.5 21.5283 31.1508 23.1662 30.4724C24.8041 29.7939 26.2923 28.7995 27.5459 27.5459C28.7995 26.2923 29.7939 24.8041 30.4724 23.1662C31.1508 21.5283 31.5 19.7728 31.5 18C31.5 16.2272 31.1508 14.4717 30.4724 12.8338C29.7939 11.1959 28.7995 9.70765 27.5459 8.45406C26.2923 7.20047 24.8041 6.20607 23.1662 5.52763C21.5283 4.84919 19.7728 4.5 18 4.5C16.2272 4.5 14.4717 4.84919 12.8338 5.52763C11.1959 6.20607 9.70765 7.20047 8.45406 8.45406C7.20047 9.70765 6.20606 11.1959 5.52763 12.8338C4.84919 14.4717 4.5 16.2272 4.5 18Z" stroke="#FF2825" stroke-width="1.5" stroke-linecap="round" stroke-linejoin="round"/>
<path d="M18 13.5V19.5" stroke="#FF2825" stroke-width="1.5" stroke-linecap="round" stroke-linejoin="round"/>
<path d="M18 24V24.015" stroke="#FF2825" stroke-width="1.5" stroke-linecap="round" stroke-linejoin="round"/>
</g>
<defs>
<clipPath id="clip0_51_12">
<rect width="36" height="36" fill="white"/>
</clipPath>
</defs>
</svg>
